<svg viewBox="0 0 277.1 276.7" xmlns="http://www.w3.org/2000/svg"><g fill="#ff423e"><path d="m138.2 4.3c-73.9 0-134.1 60.2-134.1 134.1 0 74 60.2 134.2 134.1 134.2 74 0 134.1-60.2 134.1-134.2.1-73.9-60.1-134.1-134.1-134.1zm111.6 134.1c0 61.5-50 111.6-111.6 111.6s-111.6-50-111.6-111.6c0-61.5 50-111.6 111.6-111.6s111.6 50.1 111.6 111.6z"/><path d="m163 48.6c-16.2 0-22 21.9-32.9 79.7h-54.3l2.3 12.2c13.5 72.9 22.8 86.2 36.2 86.2 16.5 0 22.5-22.5 33-77.8h53.6l-2.1-12.1c-13.4-74.5-22.5-88.2-35.8-88.2zm13.2 79.8h-26.9c3.9-20.2 9.4-44.4 13.7-56.7 2.5 7 6.9 22.6 13.2 56.7zm-50 20.6-.9 4.8c-3.4 18-7.5 39.8-11.3 50.8-3.2-7.4-9.6-24.5-15.9-55.6z"/></g></svg>